Cover:
 
http://img.doridro.com/files/45189.png

Releasr Info:

General

Format                                   : AVI
Format/Info                              : Audio Video Interleave
File size                                : 449 MiB
Duration                                 : 1h 20mn
Overall bit rate mode                    : Variable
Overall bit rate                         : 785 Kbps

Video
ID                                       : 0
Format                                   : MPEG-4 Visual
Format profile                           : Advanced Simple@L5
Format settings, BVOP                    : 1
Format settings, QPel                    : No
Format settings, GMC                     : No warppoints
Format settings, Matrix                  : Custom
Codec ID                                 : XVID
Codec ID/Hint                            : XviD
Duration                                 : 1h 20mn
Bit rate                                 : 665 Kbps
Width                                    : 640 pixels
Height                                   : 480 pixels
Display aspect ratio                     : 4:3
Frame rate                               : 25.000 fps
Color space                              : YUV
Chroma subsampling                       : 4:2:0
Bit depth                                : 8 bits
Scan type                                : Progressive
Compression mode                         : Lossy
Bits/(Pixel*Frame)                       : 0.087
Stream size                              : 381 MiB (85%)
Writing library                          : XviD 64

Audio
ID                                       : 1
Format                                   : MPEG Audio
Format version                           : Version 1
Format profile                           : Layer 3
Mode                                     : Joint stereo
Mode extension                           : MS Stereo
Codec ID                                 : 55
Codec ID/Hint                            : MP3
Duration                                 : 1h 20mn
Bit rate mode                            : Variable
Bit rate                                 : 107 Kbps
Channel(s)                               : 2 channels
Sampling rate                            : 48.0 KHz
Compression mode                         : Lossy
Stream size                              : 61.3 MiB (14%)
Alignment                                : Aligned on interleaves
Interleave, duration                     : 24 ms (0.60 video frame)
Interleave, preload duration             : 494 ms
Language                                 : Bengali

Source:
credit to original movie ripper (Thanks)

Thanks to Doridro Entertainment Team ,  ..ShOpNoHiN.. 


Movie info:

Director: Milan Roy Choudhury
Cast: Sabyasachi Chakrabarty, Rwita Dutta Chakrabarty, Paoli Dam, Abir Chatterjee, Soham Chakraborty and others..

A professor is missing and over a single night his neighbors & relatives start cooking up a spicy story involving one of his young students.

Screen Shot:
 
http://www.shotpix.com/images/63361363193608767161.jpg 
http://www.shotpix.com/images/27423636463148063667.jpg 
http://www.shotpix.com/images/19624125286965988730.jpg 
http://www.shotpix.com/images/48577339709396265667.jpg 
http://www.shotpix.com/images/70713618735431835937.jpg 
http://www.shotpix.com/images/42265465372426862764.jpg 
http://www.shotpix.com/images/64429874758361694564.jpg 
http://www.shotpix.com/images/66976681168887296524.jpg